<svg xmlns="http://www.w3.org/2000/svg" viewBox="0 0 960 600">
  <defs><linearGradient id="sky" x2="0" y2="1"><stop stop-color="#dce8eb"/><stop offset="1" stop-color="#f2eee6"/></linearGradient><linearGradient id="tower" x2="1" y2="1"><stop stop-color="#afc6c8"/><stop offset="1" stop-color="#6e9295"/></linearGradient></defs>
  <rect width="960" height="600" fill="url(#sky)"/><rect y="0" width="960" height="42" fill="#fdfcf9"/>
  <text x="52" y="28" fill="#294752" font-family="Georgia,serif" font-size="19" font-weight="bold">GREENWOOD</text><text x="615" y="26" fill="#536b70" font-family="Arial,sans-serif" font-size="11">ПРОЕКТЫ　 О КОМПАНИИ　 ИНВЕСТОРАМ</text><text x="878" y="26" fill="#294752" font-family="Arial,sans-serif" font-size="12" font-weight="bold">RU　⌄</text>
  <rect x="0" y="42" width="960" height="350" fill="#e8eeea"/><circle cx="791" cy="113" r="43" fill="#e8d5a7" opacity=".9"/>
  <path d="M0 337h960v55H0z" fill="#81988b"/><path d="M0 365q130-55 252 0t247-5 240 4 221-5v33H0" fill="#6e897b"/>
  <g>
    <rect x="529" y="109" width="181" height="253" fill="url(#tower)"/><rect x="715" y="79" width="147" height="283" fill="#78999b"/><rect x="490" y="157" width="38" height="205" fill="#d6d6c9"/>
    <path d="M545 127h148v218H545z" fill="#b7ccca" opacity=".55"/><g fill="#eef1e5" opacity=".86">
      <path d="M551 138h24v30h-24zm39 0h24v30h-24zm39 0h24v30h-24zm-78 48h24v30h-24zm39 0h24v30h-24zm39 0h24v30h-24zm-78 48h24v30h-24zm39 0h24v30h-24zm39 0h24v30h-24zm-78 48h24v30h-24zm39 0h24v30h-24zm39 0h24v30h-24z"/>
      <path d="M730 101h19v30h-19zm36 0h19v30h-19zm36 0h19v30h-19zm-72 49h19v30h-19zm36 0h19v30h-19zm36 0h19v30h-19zm-72 49h19v30h-19zm36 0h19v30h-19zm36 0h19v30h-19zm-72 49h19v30h-19zm36 0h19v30h-19zm36 0h19v30h-19z"/>
    </g>
    <rect x="679" y="245" width="13" height="117" fill="#f0ead8"/><rect x="849" y="259" width="13" height="103" fill="#f0ead8"/>
    <path d="M444 362q12-75 53-75t49 75m267 0q14-66 51-66t45 66" fill="#456a58"/><circle cx="490" cy="300" r="23" fill="#527960"/><circle cx="811" cy="303" r="23" fill="#557d61"/>
  </g>
  <text x="56" y="111" fill="#55736f" font-family="Arial,sans-serif" font-size="11" font-weight="bold" letter-spacing="2">ГОРОДСКАЯ ЖИЗНЬ В ГАРМОНИИ С ПРИРОДОЙ</text>
  <text x="52" y="169" fill="#213e49" font-family="Georgia,serif" font-size="43" font-weight="bold">Пространство</text><text x="52" y="216" fill="#213e49" font-family="Georgia,serif" font-size="43" font-weight="bold">для вашей жизни.</text>
  <text x="56" y="251" fill="#536a6d" font-family="Arial,sans-serif" font-size="13">Продуманные дома, зелёные дворы и всё нужное рядом.</text>
  <rect x="56" y="272" width="150" height="39" rx="2" fill="#315b60"/><text x="77" y="297" fill="#fff" font-family="Arial,sans-serif" font-size="11" font-weight="bold">ВЫБРАТЬ КВАРТИРУ　→</text>
  <rect y="392" width="960" height="208" fill="#fdfcf9"/><text x="54" y="436" fill="#284954" font-family="Georgia,serif" font-size="22" font-weight="bold">Проекты Greenwood</text><text x="54" y="458" fill="#77858a" font-family="Arial,sans-serif" font-size="11">Места, в которых хочется остаться</text>
  <g font-family="Arial,sans-serif"><rect x="54" y="477" width="263" height="85" fill="#e8eeea"/><rect x="54" y="477" width="100" height="85" fill="#91aaa1"/><path d="M65 547V502h27v45m8 0v-34h23v34" fill="#dce5db"/><text x="169" y="507" fill="#32535a" font-size="12" font-weight="bold">Северный парк</text><text x="169" y="527" fill="#79898a" font-size="10">Сдан　·　от 8,9 млн ₽</text><text x="169" y="546" fill="#547873" font-size="10">Смотреть проект　→</text>
  <rect x="337" y="477" width="263" height="85" fill="#e9e6dc"/><rect x="337" y="477" width="100" height="85" fill="#b6b49f"/><path d="M350 547v-47h24v47m8 0v-33h38v33" fill="#e7e2d2"/><text x="452" y="507" fill="#32535a" font-size="12" font-weight="bold">Береговой квартал</text><text x="452" y="527" fill="#79898a" font-size="10">Строится　·　от 7,4 млн ₽</text><text x="452" y="546" fill="#547873" font-size="10">Смотреть проект　→</text>
  <rect x="620" y="477" width="286" height="85" fill="#e9e8df"/><rect x="620" y="477" width="100" height="85" fill="#a5b7ae"/><path d="M636 547v-50h25v50m9 0v-39h35v39" fill="#e8e9df"/><text x="735" y="507" fill="#32535a" font-size="12" font-weight="bold">Лесная резиденция</text><text x="735" y="527" fill="#79898a" font-size="10">Старт продаж　·　от 9,2 млн ₽</text><text x="735" y="546" fill="#547873" font-size="10">Смотреть проект　→</text></g>
  <text x="54" y="586" fill="#77858a" font-family="Arial,sans-serif" font-size="10">КОНЦЕПТ КОРПОРАТИВНОГО САЙТА　 ·　 ДИЗАЙН-ПРОЕКТ</text>
</svg>
