<svg xmlns="http://www.w3.org/2000/svg" viewBox="0 0 400 400">
  <defs><linearGradient id="bg" x2="1" y2="1"><stop stop-color="#e8e8d8"/><stop offset="1" stop-color="#c9d8c7"/></linearGradient><linearGradient id="shirt" x2="0" y2="1"><stop stop-color="#688170"/><stop offset="1" stop-color="#405d50"/></linearGradient></defs>
  <rect width="400" height="400" fill="url(#bg)"/><circle cx="319" cy="76" r="45" fill="#f3dfad" opacity=".65"/><path d="M0 308q71-47 139-4t129-6 132 4v98H0z" fill="#b5c8b1"/>
  <path d="M79 400q5-118 122-128 112 4 121 128" fill="url(#shirt)"/><path d="M145 279l55 62 55-62-18-27h-75z" fill="#f2e9d8"/><path d="M132 171q-9-102 74-111 91 4 75 123l-17 72-67 34-66-40z" fill="#493c32"/><ellipse cx="203" cy="187" rx="69" ry="87" fill="#e8b99d"/><path d="M133 175q6-99 77-103 76 12 76 91-29-24-44-58-39 42-109 45z" fill="#493c32"/><path d="M141 161q-28 15-22 74l19 26 8-61m110-87q56 22 47 105l-14 48-13-62" fill="#493c32"/><path d="M169 189q14-10 27 0m22 0q14-10 27 0" fill="none" stroke="#59463a" stroke-width="4" stroke-linecap="round"/><ellipse cx="184" cy="193" rx="3.5" ry="4" fill="#3f3933"/><ellipse cx="232" cy="193" rx="3.5" ry="4" fill="#3f3933"/><path d="M203 198q-5 17 3 19m-20 17q19 14 39-1" fill="none" stroke="#a45f56" stroke-width="3" stroke-linecap="round"/><path d="M145 277q14 38 58 42 45-5 57-42l19 18-35 105H155l-29-104z" fill="#f3eadc"/><path d="M153 400l19-91 31 36 33-36 15 91" fill="url(#shirt)"/><circle cx="123" cy="230" r="7" fill="#d3ae62"/><circle cx="282" cy="230" r="7" fill="#d3ae62"/>
  <text x="200" y="380" text-anchor="middle" fill="#f5f1e7" font-family="Arial,sans-serif" font-size="11" font-weight="bold" letter-spacing="2">ART DIRECTION</text>
</svg>
